<svg xmlns="http://www.w3.org/2000/svg" xmlns:xlink="http://www.w3.org/1999/xlink" width="482.074" height="434.734" viewBox="0 0 482.074 434.734"><defs><linearGradient id="a" x1="0.5" x2="0.5" y2="1" gradientUnits="objectBoundingBox"><stop offset="0" stop-color="#1487fd"/><stop offset="1" stop-color="#42a0ff"/></linearGradient></defs><g transform="translate(0 -17.315)"><g transform="translate(242.404 17.315)" fill="none" stroke="#fb0" stroke-width="50"><circle cx="119.835" cy="119.835" r="119.835" stroke="none"/><circle cx="119.835" cy="119.835" r="94.835" fill="none"/></g><circle cx="46.932" cy="46.932" r="46.932" transform="translate(0 228.735)" fill="url(#a)"/><g transform="translate(37.363 248.276)" opacity="0.14"><circle cx="3.064" cy="3.064" r="3.064" transform="translate(92.952) rotate(90)" fill="#f2805b"/><circle cx="3.064" cy="3.064" r="3.064" transform="translate(92.952 17.365) rotate(90)" fill="#f2805b"/><circle cx="3.064" cy="3.064" r="3.064" transform="translate(92.952 34.729) rotate(90)" fill="#f2805b"/><circle cx="3.064" cy="3.064" r="3.064" transform="translate(92.952 49.411) rotate(90)" fill="#f2805b"/><circle cx="3.064" cy="3.064" r="3.064" transform="translate(92.952 65.881) rotate(90)" fill="#f2805b"/><circle cx="3.064" cy="3.064" r="3.064" transform="translate(92.952 82.351) rotate(90)" fill="#f2805b"/><circle cx="3.064" cy="3.064" r="3.064" transform="translate(92.952 98.822) rotate(90)" fill="#f2805b"/><circle cx="3.064" cy="3.064" r="3.064" transform="translate(92.952 115.292) rotate(90)" fill="#f2805b"/><circle cx="3.064" cy="3.064" r="3.064" transform="translate(92.952 131.762) rotate(90)" fill="#f2805b"/><circle cx="3.064" cy="3.064" r="3.064" transform="translate(92.952 148.233) rotate(90)" fill="#f2805b"/><circle cx="3.064" cy="3.064" r="3.064" transform="translate(92.952 162.914) rotate(90)" fill="#f2805b"/><circle cx="3.064" cy="3.064" r="3.064" transform="translate(92.952 180.279) rotate(90)" fill="#f2805b"/><circle cx="3.064" cy="3.064" r="3.064" transform="translate(92.952 197.644) rotate(90)" fill="#f2805b"/><circle cx="3.064" cy="3.064" r="3.064" transform="translate(23.493) rotate(90)" fill="#f2805b"/><circle cx="3.064" cy="3.064" r="3.064" transform="translate(23.493 17.365) rotate(90)" fill="#f2805b"/><circle cx="3.064" cy="3.064" r="3.064" transform="translate(23.493 34.729) rotate(90)" fill="#f2805b"/><circle cx="3.064" cy="3.064" r="3.064" transform="translate(23.493 49.411) rotate(90)" fill="#f2805b"/><circle cx="3.064" cy="3.064" r="3.064" transform="translate(23.493 65.881) rotate(90)" fill="#f2805b"/><circle cx="3.064" cy="3.064" r="3.064" transform="translate(23.493 82.351) rotate(90)" fill="#f2805b"/><circle cx="3.064" cy="3.064" r="3.064" transform="translate(23.493 98.822) rotate(90)" fill="#f2805b"/><circle cx="3.064" cy="3.064" r="3.064" transform="translate(75.587) rotate(90)" fill="#f2805b"/><circle cx="3.064" cy="3.064" r="3.064" transform="translate(75.587 17.365) rotate(90)" fill="#f2805b"/><circle cx="3.064" cy="3.064" r="3.064" transform="translate(75.587 34.729) rotate(90)" fill="#f2805b"/><circle cx="3.064" cy="3.064" r="3.064" transform="translate(75.587 49.411) rotate(90)" fill="#f2805b"/><circle cx="3.064" cy="3.064" r="3.064" transform="translate(75.587 65.881) rotate(90)" fill="#f2805b"/><circle cx="3.064" cy="3.064" r="3.064" transform="translate(75.587 82.351) rotate(90)" fill="#f2805b"/><circle cx="3.064" cy="3.064" r="3.064" transform="translate(75.587 98.822) rotate(90)" fill="#f2805b"/><circle cx="3.064" cy="3.064" r="3.064" transform="translate(75.587 115.292) rotate(90)" fill="#f2805b"/><circle cx="3.064" cy="3.064" r="3.064" transform="translate(75.587 131.762) rotate(90)" fill="#f2805b"/><circle cx="3.064" cy="3.064" r="3.064" transform="translate(75.587 148.233) rotate(90)" fill="#f2805b"/><circle cx="3.064" cy="3.064" r="3.064" transform="translate(75.587 162.914) rotate(90)" fill="#f2805b"/><circle cx="3.064" cy="3.064" r="3.064" transform="translate(75.587 180.279) rotate(90)" fill="#f2805b"/><circle cx="3.064" cy="3.064" r="3.064" transform="translate(75.587 197.644) rotate(90)" fill="#f2805b"/><circle cx="3.064" cy="3.064" r="3.064" transform="translate(6.129) rotate(90)" fill="#f2805b"/><circle cx="3.064" cy="3.064" r="3.064" transform="translate(6.129 17.365) rotate(90)" fill="#f2805b"/><circle cx="3.064" cy="3.064" r="3.064" transform="translate(6.129 34.729) rotate(90)" fill="#f2805b"/><circle cx="3.064" cy="3.064" r="3.064" transform="translate(6.129 49.411) rotate(90)" fill="#f2805b"/><circle cx="3.064" cy="3.064" r="3.064" transform="translate(6.129 65.881) rotate(90)" fill="#f2805b"/><circle cx="3.064" cy="3.064" r="3.064" transform="translate(6.129 82.351) rotate(90)" fill="#f2805b"/><circle cx="3.064" cy="3.064" r="3.064" transform="translate(6.129 98.822) rotate(90)" fill="#f2805b"/><circle cx="3.064" cy="3.064" r="3.064" transform="translate(58.223) rotate(90)" fill="#f2805b"/><circle cx="3.064" cy="3.064" r="3.064" transform="translate(58.223 17.365) rotate(90)" fill="#f2805b"/><circle cx="3.064" cy="3.064" r="3.064" transform="translate(58.223 34.729) rotate(90)" fill="#f2805b"/><circle cx="3.064" cy="3.064" r="3.064" transform="translate(58.223 49.411) rotate(90)" fill="#f2805b"/><circle cx="3.064" cy="3.064" r="3.064" transform="translate(58.223 65.881) rotate(90)" fill="#f2805b"/><circle cx="3.064" cy="3.064" r="3.064" transform="translate(58.223 82.351) rotate(90)" fill="#f2805b"/><circle cx="3.064" cy="3.064" r="3.064" transform="translate(58.223 98.822) rotate(90)" fill="#f2805b"/><circle cx="3.064" cy="3.064" r="3.064" transform="translate(58.223 115.292) rotate(90)" fill="#f2805b"/><circle cx="3.064" cy="3.064" r="3.064" transform="translate(58.223 131.762) rotate(90)" fill="#f2805b"/><circle cx="3.064" cy="3.064" r="3.064" transform="translate(58.223 148.233) rotate(90)" fill="#f2805b"/><circle cx="3.064" cy="3.064" r="3.064" transform="translate(58.223 162.914) rotate(90)" fill="#f2805b"/><circle cx="3.064" cy="3.064" r="3.064" transform="translate(58.223 180.279) rotate(90)" fill="#f2805b"/><circle cx="3.064" cy="3.064" r="3.064" transform="translate(58.223 197.644) rotate(90)" fill="#f2805b"/><circle cx="3.064" cy="3.064" r="3.064" transform="translate(23.493 115.292) rotate(90)" fill="#f2805b"/><circle cx="3.064" cy="3.064" r="3.064" transform="translate(23.493 131.762) rotate(90)" fill="#f2805b"/><circle cx="3.064" cy="3.064" r="3.064" transform="translate(23.493 148.233) rotate(90)" fill="#f2805b"/><circle cx="3.064" cy="3.064" r="3.064" transform="translate(23.493 162.914) rotate(90)" fill="#f2805b"/><circle cx="3.064" cy="3.064" r="3.064" transform="translate(23.493 180.279) rotate(90)" fill="#f2805b"/><circle cx="3.064" cy="3.064" r="3.064" transform="translate(23.493 197.644) rotate(90)" fill="#f2805b"/><circle cx="3.064" cy="3.064" r="3.064" transform="translate(40.858) rotate(90)" fill="#f2805b"/><circle cx="3.064" cy="3.064" r="3.064" transform="translate(40.858 17.365) rotate(90)" fill="#f2805b"/><circle cx="3.064" cy="3.064" r="3.064" transform="translate(40.858 34.729) rotate(90)" fill="#f2805b"/><circle cx="3.064" cy="3.064" r="3.064" transform="translate(40.858 49.411) rotate(90)" fill="#f2805b"/><circle cx="3.064" cy="3.064" r="3.064" transform="translate(40.858 65.881) rotate(90)" fill="#f2805b"/><circle cx="3.064" cy="3.064" r="3.064" transform="translate(40.858 82.351) rotate(90)" fill="#f2805b"/><circle cx="3.064" cy="3.064" r="3.064" transform="translate(40.858 98.822) rotate(90)" fill="#f2805b"/><circle cx="3.064" cy="3.064" r="3.064" transform="translate(40.858 115.292) rotate(90)" fill="#f2805b"/><circle cx="3.064" cy="3.064" r="3.064" transform="translate(40.858 131.762) rotate(90)" fill="#f2805b"/><circle cx="3.064" cy="3.064" r="3.064" transform="translate(40.858 148.233) rotate(90)" fill="#f2805b"/><circle cx="3.064" cy="3.064" r="3.064" transform="translate(40.858 162.914) rotate(90)" fill="#f2805b"/><circle cx="3.064" cy="3.064" r="3.064" transform="translate(40.858 180.279) rotate(90)" fill="#f2805b"/><circle cx="3.064" cy="3.064" r="3.064" transform="translate(40.858 197.644) rotate(90)" fill="#f2805b"/><circle cx="3.064" cy="3.064" r="3.064" transform="translate(6.129 115.292) rotate(90)" fill="#f2805b"/><circle cx="3.064" cy="3.064" r="3.064" transform="translate(6.129 131.762) rotate(90)" fill="#f2805b"/><circle cx="3.064" cy="3.064" r="3.064" transform="translate(6.129 148.233) rotate(90)" fill="#f2805b"/><circle cx="3.064" cy="3.064" r="3.064" transform="translate(6.129 162.914) rotate(90)" fill="#f2805b"/><circle cx="3.064" cy="3.064" r="3.064" transform="translate(6.129 180.279) rotate(90)" fill="#f2805b"/><circle cx="3.064" cy="3.064" r="3.064" transform="translate(6.129 197.644) rotate(90)" fill="#f2805b"/></g></g></svg>