<svg xmlns="http://www.w3.org/2000/svg" xmlns:xlink="http://www.w3.org/1999/xlink" width="281" height="316.047" viewBox="0 0 281 316.047">
  <defs>
    <linearGradient id="linear-gradient" x1="0.5" x2="0.5" y2="1" gradientUnits="objectBoundingBox">
      <stop offset="0" stop-color="#f6f6f6"/>
      <stop offset="1" stop-color="#ececec"/>
    </linearGradient>
    <linearGradient id="linear-gradient-2" x1="0.5" x2="0.5" y2="1" gradientUnits="objectBoundingBox">
      <stop offset="0" stop-color="#fff"/>
      <stop offset="1" stop-color="#f3f3f3"/>
    </linearGradient>
    <linearGradient id="linear-gradient-3" x1="0.5" x2="0.5" y2="1" gradientUnits="objectBoundingBox">
      <stop offset="0" stop-color="#f3f3f3"/>
      <stop offset="1" stop-color="#fff"/>
    </linearGradient>
        
      <filter id="f1" x="" y="10%">
        <feGaussianBlur in="SourceGraphic" stdDeviation="3" />
      </filter>
  </defs>
  <g id="Mobile" transform="translate(-1065.683 -226.59)">

   
    <ellipse filter="url(#f1)" id="Ellipse_68" data-name="Ellipse 68" cx="50" cy="8" rx="48" ry="7" transform="translate(1116.683 477.637)" fill="#6d6767" opacity="0.11"/>
    
    <ellipse filter="url(#f1)" id="Ellipse_69" data-name="Ellipse 69" cx="50" cy="7.5" rx="48" ry="6.5" transform="translate(1189.683 442.637)" fill="#6d6767" opacity="0.11"/>
    <g id="iPhone_X_-_Light" data-name="iPhone X - Light" transform="translate(1187.104 226.59)">
      <path id="Bezel" d="M12.5,0H95.742a12.5,12.5,0,0,1,12.5,12.5V211.962a12.5,12.5,0,0,1-12.5,12.5H12.5A12.5,12.5,0,0,1,0,211.962V12.5A12.5,12.5,0,0,1,12.5,0Z" transform="translate(0 0)" fill="url(#linear-gradient)"/>
      <path id="Glass" d="M11.819,0h83.54a11.789,11.789,0,0,1,11.819,11.758V211.64A11.789,11.789,0,0,1,95.359,223.4H11.819A11.789,11.789,0,0,1,0,211.64V11.758A11.789,11.789,0,0,1,11.819,0Z" transform="translate(0.532 0.532)" fill="url(#linear-gradient-2)"/>
      <g id="Camera" transform="translate(65.858 4.772)">
        <ellipse id="Ellipse_7" data-name="Ellipse 7" cx="1.882" cy="1.882" rx="1.882" ry="1.882" transform="translate(0 0)" fill="url(#linear-gradient-3)"/>
        <circle id="Ellipse_8" data-name="Ellipse 8" cx="1.673" cy="1.673" r="1.673" transform="translate(0 0)" fill="url(#linear-gradient-2)"/>
        <ellipse id="Ellipse_10" data-name="Ellipse 10" cx="1.255" cy="1.255" rx="1.255" ry="1.255" transform="translate(0.418 0.418)" fill="#f3f3f3"/>
        <circle id="Ellipse_9" data-name="Ellipse 9" cx="0.209" cy="0.209" r="0.209" transform="translate(1.673 0.418)" fill="#fff"/>
      </g>
      <path id="Ear_Piece" data-name="Ear Piece" d="M1.431.5H16.058a.931.931,0,0,1,0,1.862H1.431A.931.931,0,1,1,1.431.5Z" transform="translate(45.376 5.218)" fill="#f3f3f3" stroke="#f9f8f8" stroke-width="1"/>
      <path id="Screen" d="M89.625,215.952H10.106A10.117,10.117,0,0,1,0,205.846V10.106A10.118,10.118,0,0,1,10.106,0H20.814a1.812,1.812,0,0,1,1.391,1.375c.044.192.089.444.142.736.1.561.228,1.257.417,1.959a5.042,5.042,0,0,0,4.928,3.917C29.054,8,37.544,8,44.426,8c12.661,0,27.188-.01,27.868-.017A5.042,5.042,0,0,0,77.222,4.07c.189-.7.315-1.4.417-1.961.053-.293.1-.543.142-.734A1.753,1.753,0,0,1,79.159,0H89.625A10.118,10.118,0,0,1,99.731,10.106V205.846A10.117,10.117,0,0,1,89.625,215.952Z" transform="translate(4.255 4.255)" fill="#e3e3e3"/>
      <path id="Image_Place_here" data-name="Image Place here" d="M89.625,215.952H10.106A10.117,10.117,0,0,1,0,205.846V10.106A10.118,10.118,0,0,1,10.106,0H20.814a1.812,1.812,0,0,1,1.391,1.375c.044.192.089.444.142.736.1.561.228,1.257.417,1.959a5.042,5.042,0,0,0,4.928,3.917C29.054,8,37.544,8,44.426,8c12.661,0,27.188-.01,27.868-.017A5.042,5.042,0,0,0,77.222,4.07c.189-.7.315-1.4.417-1.961.053-.293.1-.543.142-.734A1.753,1.753,0,0,1,79.159,0H89.625A10.118,10.118,0,0,1,99.731,10.106V205.846A10.117,10.117,0,0,1,89.625,215.952Z" transform="translate(4.255 4.255)" fill="#e3e3e3"/>
      <path id="Home" d="M.665,0H33.909a.665.665,0,0,1,0,1.33H.665A.665.665,0,1,1,.665,0Z" transform="translate(36.967 215.686)" fill="#e2e2e2"/>
    </g>
    <g id="iPhone_X_-_Light-2" data-name="iPhone X - Light" transform="translate(1116.362 262.59)">
      <path id="Bezel-2" data-name="Bezel" d="M12.5,0H95.742a12.5,12.5,0,0,1,12.5,12.5V211.962a12.5,12.5,0,0,1-12.5,12.5H12.5A12.5,12.5,0,0,1,0,211.962V12.5A12.5,12.5,0,0,1,12.5,0Z" transform="translate(0 0)" fill="url(#linear-gradient)"/>
      <path id="Glass-2" data-name="Glass" d="M11.819,0h83.54a11.789,11.789,0,0,1,11.819,11.758V211.64A11.789,11.789,0,0,1,95.359,223.4H11.819A11.789,11.789,0,0,1,0,211.64V11.758A11.789,11.789,0,0,1,11.819,0Z" transform="translate(0.532 0.532)" fill="url(#linear-gradient-2)"/>
      <g id="Camera-2" data-name="Camera" transform="translate(65.867 4.606)">
        <ellipse id="Ellipse_7-2" data-name="Ellipse 7" cx="1.875" cy="1.875" rx="1.875" ry="1.875" transform="translate(0 0)" fill="url(#linear-gradient-3)"/>
        <circle id="Ellipse_8-2" data-name="Ellipse 8" cx="1.688" cy="1.688" r="1.688" transform="translate(0 0)" fill="url(#linear-gradient-2)"/>
        <ellipse id="Ellipse_10-2" data-name="Ellipse 10" cx="1.312" cy="1.313" rx="1.312" ry="1.313" transform="translate(0.375 0.375)" fill="#f3f3f3"/>
        <circle id="Ellipse_9-2" data-name="Ellipse 9" cx="0.375" cy="0.375" r="0.375" transform="translate(1.5 0.375)" fill="#fff"/>
      </g>
      <path id="Ear_Piece-2" data-name="Ear Piece" d="M1.431.5H16.058a.931.931,0,0,1,0,1.862H1.431A.931.931,0,1,1,1.431.5Z" transform="translate(45.376 5.218)" fill="#f3f3f3" stroke="#f9f8f8" stroke-width="1"/>
      <path id="Screen-2" data-name="Screen" d="M89.625,215.952H10.106A10.117,10.117,0,0,1,0,205.846V10.106A10.118,10.118,0,0,1,10.106,0H20.814a1.812,1.812,0,0,1,1.391,1.375c.044.192.089.444.142.736.1.561.228,1.257.417,1.959a5.042,5.042,0,0,0,4.928,3.917C29.054,8,37.544,8,44.426,8c12.661,0,27.188-.01,27.868-.017A5.042,5.042,0,0,0,77.222,4.07c.189-.7.315-1.4.417-1.961.053-.293.1-.543.142-.734A1.753,1.753,0,0,1,79.159,0H89.625A10.118,10.118,0,0,1,99.731,10.106V205.846A10.117,10.117,0,0,1,89.625,215.952Z" transform="translate(4.255 4.255)" fill="#e3e3e3"/>
      <path id="Image_Place_here-2" data-name="Image Place here" d="M89.625,215.952H10.106A10.117,10.117,0,0,1,0,205.846V10.106A10.118,10.118,0,0,1,10.106,0H20.814a1.812,1.812,0,0,1,1.391,1.375c.044.192.089.444.142.736.1.561.228,1.257.417,1.959a5.042,5.042,0,0,0,4.928,3.917C29.054,8,37.544,8,44.426,8c12.661,0,27.188-.01,27.868-.017A5.042,5.042,0,0,0,77.222,4.07c.189-.7.315-1.4.417-1.961.053-.293.1-.543.142-.734A1.753,1.753,0,0,1,79.159,0H89.625A10.118,10.118,0,0,1,99.731,10.106V205.846A10.117,10.117,0,0,1,89.625,215.952Z" transform="translate(4.255 4.255)" fill="#e3e3e3"/>
      <path id="Home-2" data-name="Home" d="M.665,0H33.909a.665.665,0,0,1,0,1.33H.665A.665.665,0,1,1,.665,0Z" transform="translate(36.967 215.686)" fill="#e2e2e2"/>
    </g>
  </g>
</svg>
